<svg xmlns="http://www.w3.org/2000/svg" x="0" y="0" viewBox="0 0 1000 1000">
    <path fill="#f0a500" d="M686.4 940H313.6c-41.7 0-80.6-22.5-101.5-58.6L25.7 558.6c-20.9-36.1-20.9-81 0-117.2l186.4-322.9C233 82.4 271.9 60 313.6 60h372.8c41.7 0 80.6 22.5 101.5 58.6l186.4 322.9c20.9 36.1 20.9 81 0 117.2L787.9 881.4c-20.8 36.2-59.8 58.6-101.5 58.6zM313.6 109.2c-24.2 0-46.7 13-58.7 33.9l-186.4 323c-12 20.9-12 46.9 0 67.8l186.4 322.9c12 20.9 34.6 34 58.7 34h372.8c24.2 0 46.7-13 58.7-34l186.4-322.9c12-20.9 12-46.9 0-67.8L745.2 143.2c-12-20.9-34.6-33.9-58.7-33.9H313.6z"></path>
</svg>