<svg xmlns="http://www.w3.org/2000/svg" width="1920" height="152.69" viewBox="0 0 1920 152.69">
  <g  id="Group_26" data-name="Group 26" transform="translate(0 -2556.31)">
    <rect fill="#dedede" id="Rectangle_17" data-name="Rectangle 17" width="1920" height="12" transform="translate(0 2697)"/>
    <path fill="#dedede" id="Path_20" data-name="Path 20" d="M-438.1,1346.366l4.252,2.262c.041.461.1,1.167.158,1.754l4.894,2.288c.062.4.178,1.167.332,2.177,2.855-.623,5.661-1.225,8.461-1.849,3.05-.68,6.077-1.481,9.149-2.03,1.568-.28,2.17-.975,1.893-2.464-.41-2.208.647-2.971,2.707-3.39,4.768-.969,9.488-2.175,14.215-3.339,1.346-.332,3.15-.033,3.434-2.165.026-.2.59-.425.927-.469,1.815-.233,2.7-1.16,2.274-3.214a6.547,6.547,0,0,0,1.97-.036c.89-.314,2.2-.663,2.465-1.337,2.252-5.735,6.972-9.2,11.495-12.836,4.7-3.778,9.337-7.708,15.517-8.927a1.348,1.348,0,0,0,.911-2.288c-2.981-2.19-1.431-4.83-1.045-7.38l.529.272a19.933,19.933,0,0,0,1.72-2.97c.943-2.512,1.744-5.08,2.563-7.637.708-2.21,1.369-4.435,2.037-6.658a3.168,3.168,0,0,0-.768-3.577,3.178,3.178,0,0,1-.6-1.989c-.085-1.6.086-3.21-.058-4.8-.181-1.987.648-2.932,2.545-3.333a2.79,2.79,0,0,0,1.722-1.35c.938-2.012,1.678-4.117,2.485-6.189.106-.273.159-.566.284-1.024,1.15,2.629,1.9,4.7,2.958,6.6a4.945,4.945,0,0,0,2.435,2.057c1.431.524,2.214,1.167,2.118,2.789-.1,1.74,0,3.491-.041,5.236-.013.563.009,1.362-.328,1.643-1.861,1.551-1.29,3.423-.728,5.2,1.072,3.39,2.328,6.721,3.464,10.092a18.6,18.6,0,0,1,.876,3.371c.177,1.29.338,2.406,2.009,1.889a24.71,24.71,0,0,0,.872,3.53,2.247,2.247,0,0,1-.65,2.858c-2.155,2.072-1.9,3.281.892,3.955,6.194,1.5,10.731,5.672,15.506,9.447,4.169,3.3,8.182,6.7,10.422,11.816.469,1.072,2.6,1.414,4.289,2.252-.223,1.4.8,2.382,2.718,2.659.3.044.81.377.812.579.016,1.618,1.317,1.515,2.3,1.748,5.231,1.244,10.457,2.516,15.718,3.625,1.745.368,2.6,1.083,2.254,2.888-.362,1.914.5,2.588,2.345,2.977,7.963,1.673,15.882,3.556,23.836,5.274,1.344.29,2.1.678,1.953,2.208-.037.377.514.812.795,1.22.267-.485.759-.967.765-1.455.055-4.218.015-8.437.016-12.655q.009-30.772.022-61.543c0-.361-.034-.722-.051-1.058-2.329-.9-5.2-5.79-4.851-8.188.01-.071-.007-.178.033-.208,3.005-2.241,1.251-5.637,2.093-8.671l2.292,1.907c0-1.763-.051-3.241.021-4.714a15.807,15.807,0,0,1,.444-2.3,12.222,12.222,0,0,1,2.449,1.986,7.076,7.076,0,0,1,.672,2.49l.681-.022a10.941,10.941,0,0,1,.6-2.1,7.126,7.126,0,0,1,1.547-2.138,1.781,1.781,0,0,1,1.568.082c.2.106.084.9.059,1.372-.087,1.677-.2,3.353-.335,5.654l2.773-2.609c0,2.245-.026,3.916.013,5.585a4,4,0,0,0,.3,1.887c1.72,2.847,1.57,4.405-.7,7.175a32.808,32.808,0,0,0-1.971,2.995l-.563-.326v76.832c1.76-1.058,3.745-1.679,4.793-3.028a15.486,15.486,0,0,1,4.481-4.067.921.921,0,0,0,.32-.747c-.359-3.421.683-7.007-1.253-10.249-.621-1.04.511-5.434,1.436-5.983,2.18-1.294,2.728-2.524,1.89-4.976-.66-1.933-1.563-3.783-2.211-5.322,1.223-2.062,2.27-3.909,3.4-5.7,1.066-1.7,2.216-3.346,3.623-5.456-1.508-3.03-.149-6.112,2.348-9.089.969-1.156,1.385-2.78,2.031-4.2,1.05-2.311,2.127-4.612,3.107-6.954.853-2.039,1.588-4.128,2.457-6.411.183-.053,1.131-.092,1.225-.395.533-1.726.723-3.563,1.3-5.269a19.169,19.169,0,0,1,2.049-3.953,10.9,10.9,0,0,1,2.093-1.763c1.27,1.781,3.683,3.692,3.458,5.214-.288,1.954,1.95,2.951.983,4.776-.132.248,1.033,1.183,1.727,1.941.979,2.114,2.125,4.481,3.177,6.89,1.235,2.829,2.377,5.7,3.586,8.54a6.82,6.82,0,0,0,1.025,1.881c2.462,2.772,3.519,5.8,1.819,9.457.442.031.937-.064,1.04.094,1.052,1.618,2.025,3.286,3.052,4.921.869,1.384,1.838,2.709,2.642,4.128a2.672,2.672,0,0,1,.287,1.824c-.613,2.256-1.39,4.467-2.06,6.708-.435,1.454-.1,2.386,1.544,2.976a3.609,3.609,0,0,1,1.623,2.379c1.032,4.413-1.752,8.6-.882,13.038.117.6.02,1.453.383,1.756,2.361,1.972,4.826,3.82,7.248,5.719.482.377.927.8,1.751,1.516a14,14,0,0,1,.039-2.8,15.346,15.346,0,0,1,1.034-2.283,5.087,5.087,0,0,0,.528-1.725c.058-2.327.05-4.656,0-6.983-.022-1.092.355-2.39-1.227-2.9-.2-.063-.385-.994-.26-1.086,2.089-1.522,1.151-3.729,1.145-5.595-.007-2.145.489-4.3-.622-6.534-.467-.94.923-2.833-.991-3.835,3-1.407.591-4.287,2.387-6.787.488,2.384.866,4.225,1.275,6.225h11.27c1.395-4.128-3-5.679-3.81-8.862h4.275c.117-.651.226-1.256.374-2.084l6.894.331-1.662-4.069,10.31-1.363.562-4.639.509.008c.156,1.355.313,2.71.535,4.634l10.334,1.379-1.746,4.082,6.825-.352.59,2.215,4.167-.217c-.584,3.208-5.272,4.741-3.726,8.947h11.258c.383-2,.741-3.872,1.1-5.745,1.946,1.919-.5,4.806,2.3,6.182-.341.535-.989,1.089-1.017,1.674-.2,4.121-.3,8.247-.376,12.373a1.774,1.774,0,0,0,.483,1.32c1.261.878,1.191,1.435-.147,2.171a2.191,2.191,0,0,0-.67,1.639c-.068,2.69-.083,5.384.01,8.072.02.569.578,1.118.88,1.68a4.4,4.4,0,0,1,.693,1.4,31.813,31.813,0,0,1,.033,3.251l3.382.316v9.948h-483.62v-10.079h5.053c0-4.833-.014-9.393.014-13.952a5.368,5.368,0,0,1,.336-2.1c.34-.766,1.455-1.532,1.328-2.09a14.257,14.257,0,0,0-1.76-3.608,8.183,8.183,0,0,0-6.748-4.279l18.754-9.876-3.062-1.787,2.062-.337c-2.313-2.729-4.529-5.381-8.514-5.582,3.581-1.748,6.771-3.558,10.153-4.878,2.839-1.109,3.926-2.907,3.414-6.168l1.778,1.341,2.219-10.7.293.013,2.25,10.817,1.473-1.277a18.935,18.935,0,0,1,.277,2.418,2.75,2.75,0,0,0,1.892,2.793c3.793,1.76,7.518,3.663,10.745,5.252l-7.74,5.324.272.671,1.908.329-3.02,1.791,19.016,10.02a5.323,5.323,0,0,1-1.1.42c-3.97.211-5.624,2.758-7.013,6.141-.595,1.449-.469,1.963.345,2.971a3.776,3.776,0,0,1,.584,2.2c.051,4.578.025,9.157.025,13.928h4.715a9.834,9.834,0,0,1,3.988-7.336,2.973,2.973,0,0,0,.727-2.1c.064-4.509-.051-9.023.092-13.528.034-1.071.857-2.107,1.27-3.177.527-1.362,1.005-2.742,1.415-3.868l3.09,5.646c.987-2.217,1.6-3.821,3.749-3.3.205.05.666-.672.9-1.094,1.709-3.039,3.451-6.061,5.036-9.164a4.057,4.057,0,0,0,.213-2.615,24.066,24.066,0,0,0-1.769-5.143c-1.442-2.814-1.582-5.4.694-7.777l-1.839-2.434c5.292-1.42,6.194-6.111,7.678-10,1.447-3.791,1.891-7.966,2.775-11.972,2.579-1.354.029-3.83,1.188-5.641.359-.56-.639-1.99-1.241-3.639l1.868,1.46c.7-1.716,1.352-4.04,3.373-3.741,1.383.2,2.5,2.176,3.93,3.536l.5-.965.4.258c-.1.443-.178.889-.29,1.327-.59,2.326-1.1,4.608.317,6.891.348.559-.006,1.51.161,2.235,1.287,5.6,2.472,11.268,5.631,16.18,1.094,1.7,2.783,3.019,4.421,4.744l-1.329,1.667c2.528,2.65,1.991,5.559.4,8.513-2.018,3.755-2.1,7.314.7,10.85a46.442,46.442,0,0,1,3.122,5.479c.266.454.825,1.138,1.151,1.088,1.859-.288,2.718.539,2.75,2.429,2.841-.767,3.04-3.047,3.905-5.15.149.706.286,1.415.449,2.118.13.564.114,1.425.467,1.631,2.372,1.379,1.7,3.626,1.729,5.647.049,3.855-.024,7.712.049,11.566a2.992,2.992,0,0,0,.771,2.087,9.746,9.746,0,0,1,3.9,7.735l5.519-1.24.345-2.146,4.614-2.137c.067-.463.186-1.3.278-1.934l4.845-2.206c.083-.535.2-1.294.315-2.036,3.439-.711,4.262-1.723,4.339-5.337q.5-23.34.989-46.68c.2-9.276.408-18.553.534-27.83a5.338,5.338,0,0,0-.846-2.745,5.833,5.833,0,0,1,.529-6.72,3.343,3.343,0,0,0,.543-1.98c.055-3.054.027-6.11.022-9.166a7.291,7.291,0,0,1,2.571-5.759,4.767,4.767,0,0,0,1.351-2.784c.407-3.377.6-6.78.921-10.79.356,4.028.563,7.456,1.016,10.853a5.423,5.423,0,0,0,1.5,2.934,7.257,7.257,0,0,1,2.394,5.4c0,2.764-.008,5.529.006,8.293.007,1.407-.231,2.772,1.315,3.825,1.074.733.613,4.473-.3,5.968a4.673,4.673,0,0,0-.823,2.321q.78,38.478,1.66,76.953C-438.159,1345.579-438.119,1346.008-438.1,1346.366Zm-71.332-53.057c-1.08,4.169-1.954,8.431-5.62,11.393h5.024C-509.819,1300.776-509.624,1297.042-509.429,1293.308Zm14.755,11.444c-3.841-2.912-4.636-7.08-5.764-11.07.169,3.657.339,7.314.513,11.07Z" transform="translate(2024.485 1327.709)"/>
  </g>
</svg>
