<svg id="Icons" height="512" viewBox="0 0 74 74" width="512" xmlns="http://www.w3.org/2000/svg"><path fill="#222" d="m68.38 68.081h-25.16a1 1 0 0 1 0-2h25.16a.966.966 0 0 0 .97-.96v-16.681a.966.966 0 0 0 -.97-.96h-62.76a.966.966 0 0 0 -.97.96v16.681a.966.966 0 0 0 .97.96h20.7a1 1 0 1 1 0 2h-20.7a2.968 2.968 0 0 1 -2.97-2.96v-16.681a2.968 2.968 0 0 1 2.97-2.96h62.76a2.968 2.968 0 0 1 2.97 2.96v16.681a2.968 2.968 0 0 1 -2.97 2.96z"/><path fill="#222" d="m36.22 68.081h-2.9a1 1 0 0 1 0-2h2.9a1 1 0 0 1 0 2z"/><path fill="#222" d="m64.217 58.25h-2.525a1 1 0 0 1 0-2h2.525a1 1 0 0 1 0 2z"/><path fill="#222" d="m56.9 58.25h-2.527a1 1 0 1 1 0-2h2.527a1 1 0 0 1 0 2z"/><path fill="#222" d="m49.577 58.25h-2.524a1 1 0 0 1 0-2h2.524a1 1 0 0 1 0 2z"/> fill="#222" d="m62.291 72h-6.865a1 1 0 0 1 -1-1v-3.922a1 1 0 0 1 1-1h6.865a1 1 0 0 1 1 1v3.922a1 1 0 0 1 -1 1zm-5.865-2h4.865v-1.922h-4.865z"/><path fill="#222" d="m18.574 72h-6.865a1 1 0 0 1 -1-1v-3.922a1 1 0 0 1 1-1h6.865a1 1 0 0 1 1 1v3.922a1 1 0 0 1 -1 1zm-5.865-2h4.865v-1.922h-4.865z"/><path fill="#222" d="m59.76 47.481h-4.7a1 1 0 0 1 -1-1v-23.881a3.351 3.351 0 0 1 6.7 0v23.881a1 1 0 0 1 -1 1zm-3.7-2h2.7v-22.881a1.351 1.351 0 0 0 -2.7 0z"/><path fill="#222" d="m69.937 9.182a1 1 0 0 1 -.708-.293 16.694 16.694 0 0 0 -23.608 0 1 1 0 0 1 -1.414-1.414 18.694 18.694 0 0 1 26.437 0 1 1 0 0 1 -.707 1.707z"/><path fill="#222" d="m65.889 13.264a.993.993 0 0 1 -.707-.293 10.983 10.983 0 0 0 -15.513 0 1 1 0 0 1 -1.414-1.414 12.982 12.982 0 0 1 18.341 0 1 1 0 0 1 -.707 1.707z"/><path fill="#222" d="m61.841 17.347a1 1 0 0 1 -.707-.293 5.252 5.252 0 0 0 -7.417 0 1 1 0 1 1 -1.417-1.414 7.251 7.251 0 0 1 10.245 0 1 1 0 0 1 -.707 1.707z"/><path fill="#222" d="m18.942 47.481h-4.7a1 1 0 0 1 -1-1v-23.881a3.351 3.351 0 0 1 6.7 0v23.881a1 1 0 0 1 -1 1zm-3.7-2h2.7v-22.881a1.351 1.351 0 0 0 -2.7 0z"/><path fill="#222" d="m29.086 9.182a1 1 0 0 1 -.707-.293 16.694 16.694 0 0 0 -23.608 0 1 1 0 0 1 -1.415-1.414 18.694 18.694 0 0 1 26.437 0 1 1 0 0 1 -.707 1.707z"/><path fill="#222" d="m25.038 13.264a.993.993 0 0 1 -.707-.293 10.983 10.983 0 0 0 -15.513 0 1 1 0 0 1 -1.418-1.414 12.982 12.982 0 0 1 18.341 0 1 1 0 0 1 -.707 1.707z"/><path fill="#222" d="m20.99 17.347a1 1 0 0 1 -.707-.293 5.252 5.252 0 0 0 -7.417 0 1 1 0 1 1 -1.414-1.414 7.251 7.251 0 0 1 10.245 0 1 1 0 0 1 -.707 1.707z"/></svg>